<?xml version="1.0" encoding="UTF-8"?>
<svg xmlns="http://www.w3.org/2000/svg" version="1.1" viewBox="0 0 43.42 14.93">
  <defs>
    <style>
      .cls-1 {
        fill: #000;
      }

      .cls-1, .cls-2 {
        stroke-width: 0px;
      }

      .cls-2 {
        fill: #fff;
      }

      .cls-3 {
        display: none;
      }
    </style>
  </defs>
  <g id="Layer_2" data-name="Layer 2" class="cls-3">
    <rect class="cls-1" x="-.07" y="-53.74" width="206.29" height="68.61"/>
  </g>
  <g id="Layer_1" data-name="Layer 1">
    <g>
      <path class="cls-2" d="M23.91,14.87c0-4.25,0-8.24,0-12.22,0-.79-.1-1.47-1.04-1.73,2.81-.03,5.63-.45,8.29.82,1.5.71,2.34,2.03,2.52,3.6.18,1.6.18,3.26-.03,4.85-.33,2.44-1.91,3.91-4.32,4.28-1.73.27-3.5.28-5.42.42ZM26.34,1.93c0,3.79-.01,7.53.03,11.26,0,.2.47.53.75.56,1.67.14,3.04-.77,3.71-2.43.77-1.92.81-3.91.46-5.92-.46-2.67-2.11-3.87-4.95-3.46Z"/>
      <path class="cls-2" d="M.63.86h3.4c0,.38,0,.75,0,1.11,0,2.98-.02,5.96,0,8.94.02,1.92.79,2.78,2.43,2.81,1.7.02,2.5-.71,2.52-2.43.03-3.08.01-6.17.01-9.25,0-.37,0-.75,0-1.17h1.67c0,.34,0,.71,0,1.07,0,2.84,0,5.68,0,8.52,0,3.05-1.39,4.37-4.43,4.28-2.45-.08-3.93-.97-4.4-2.73-.14-.52-.16-1.09-.16-1.64-.02-2.53-.02-5.06-.01-7.59,0-.83,0-1.62-1.02-1.91Z"/>
      <path class="cls-2" d="M34.7.84h8.39c.02.31.04.6.06,1.01-1.24,0-2.41,0-3.58,0-1.29,0-1.4.12-1.41,1.45,0,1,0,2,0,3.11h3.7v1.12h-3.66c0,1.68-.03,3.23.01,4.78.02.83.54,1.24,1.36,1.25,1.14,0,2.28,0,3.5,0,.03.41.06.73.09,1.13h-7.46c0-.35,0-.71,0-1.08,0-3.64,0-7.28,0-10.93,0-.81-.02-1.55-1.01-1.85Z"/>
      <path class="cls-2" d="M11.08,14.67c1.46-3.95,2.92-7.86,4.37-11.77.31-.83.58-1.65-.65-2.08.74,0,1.48-.03,2.21.02.2.01.5.23.57.42,1.7,4.44,3.38,8.9,5.08,13.38-.17.06-.26.11-.35.11q-1.87.06-2.5-1.71c-.44-1.24-.91-2.46-1.31-3.71-.19-.58-.45-.81-1.1-.81-2.54,0-2.54-.03-3.41,2.37-.33.91-.77,1.79-.98,2.73-.24,1.07-.83,1.32-1.93,1.05ZM15.09,7.55h2.78c-.48-1.27-.92-2.42-1.44-3.8-.51,1.44-.92,2.6-1.34,3.8Z"/>
    </g>
  </g>
</svg>